<?xml version="1.0" encoding="utf-8" ?>
<svg baseProfile="full" height="100%" version="1.1" width="100%" xmlns="http://www.w3.org/2000/svg" xmlns:ev="http://www.w3.org/2001/xml-events" xmlns:xlink="http://www.w3.org/1999/xlink"><defs /><line stroke="rgb(0%,0%,0%)" stroke-width="2" x1="250" x2="250.0" y1="250" y2="251.0" /><line stroke="rgb(0%,0%,0%)" stroke-width="2" x1="250.0" x2="250.0" y1="251.0" y2="252.0" /><line stroke="rgb(0%,0%,0%)" stroke-width="2" x1="250.0" x2="250.0" y1="252.0" y2="253.0" /><line stroke="rgb(0%,0%,0%)" stroke-width="2" x1="250.0" x2="250.0" y1="253.0" y2="254.0" /><line stroke="rgb(0%,0%,0%)" stroke-width="2" x1="250.0" x2="250.06975647374412" y1="254.0" y2="253.00243594974017" /><line stroke="rgb(0%,0%,0%)" stroke-width="2" x1="250.06975647374412" x2="250.13951294748824" y1="253.00243594974017" y2="252.00487189948035" /><line stroke="rgb(0%,0%,0%)" stroke-width="2" x1="250.13951294748824" x2="250.20926942123236" y1="252.00487189948035" y2="251.00730784922052" /><line stroke="rgb(0%,0%,0%)" stroke-width="2" x1="250.20926942123236" x2="250.27902589497648" y1="251.00730784922052" y2="250.0097437989607" /><line x1="100.0" x2="100.0" y1="100.0" y2="100.0" /><line x1="100.0" x2="100.0" y1="100.0" y2="100.0" /><line x1="1.0" x2="1.0" y1="100.0" y2="100.0" /><line x1="100.0" x2="100.0" y1="1.0" y2="1.0" /><line x1="1.0" x2="1.0" y1="1.0" y2="1.0" /><line x1="1.0" x2="1.0" y1="10.0" y2="10.0" /><line x1="10.0" x2="10.0" y1="1.0" y2="1.0" /><line x1="1.0" x2="1.0" y1="1.0" y2="1.0" /><line x1="1.0" x2="1.0" y1="1.0" y2="1.0" /><line x1="1.0" x2="1.0" y1="1.0" y2="1.0" /><line x1="1.0" x2="1.0" y1="1.0" y2="1.0" /><line x1="1.0" x2="1.0" y1="1.0" y2="1.0" /><line stroke="rgb(1%,1%,1%)" stroke-width="2" x1="250" x2="250.0" y1="250" y2="280.0" /><line stroke="rgb(1%,1%,1%)" stroke-width="2" x1="250.0" x2="220.0" y1="280.0" y2="280.0" /><line stroke="rgb(1%,1%,1%)" stroke-width="2" x1="220.0" x2="220.0" y1="280.0" y2="250.0" /><line stroke="rgb(1%,1%,1%)" stroke-width="2" x1="220.0" x2="250.0" y1="250.0" y2="250.0" /><line stroke="rgb(1%,1%,1%)" stroke-width="2" x1="250.0" x2="250.0" y1="250.0" y2="260.0" /><line stroke="rgb(1%,1%,1%)" stroke-width="2" x1="250.0" x2="240.0" y1="260.0" y2="260.0" /><line stroke="rgb(1%,1%,1%)" stroke-width="2" x1="240.0" x2="240.0" y1="260.0" y2="250.0" /><line stroke="rgb(1%,1%,1%)" stroke-width="2" x1="240.0" x2="250.0" y1="250.0" y2="250.0" /><line stroke="rgb(1%,1%,1%)" stroke-width="2" x1="250.0" x2="250.0" y1="250.0" y2="251.0" /><line stroke="rgb(1%,1%,1%)" stroke-width="2" x1="250.0" x2="250.0" y1="251.0" y2="252.0" /><line stroke="rgb(1%,1%,1%)" stroke-width="2" x1="250.0" x2="250.0" y1="252.0" y2="253.0" /><line stroke="rgb(1%,1%,1%)" stroke-width="2" x1="250.0" x2="250.0" y1="253.0" y2="254.0" /><line stroke="rgb(1%,1%,1%)" stroke-width="2" x1="250.0" x2="250.0" y1="254.0" y2="255.0" /><line stroke="rgb(1%,1%,1%)" stroke-width="2" x1="250.0" x2="250.0" y1="255.0" y2="256.0" /><line stroke="rgb(1%,1%,1%)" stroke-width="2" x1="250.0" x2="250.0" y1="256.0" y2="257.0" /><line stroke="rgb(1%,1%,1%)" stroke-width="2" x1="250.0" x2="250.0" y1="257.0" y2="258.0" /><line stroke="rgb(1%,1%,1%)" stroke-width="2" x1="250.0" x2="250.0" y1="258.0" y2="259.0" /><line stroke="rgb(1%,1%,1%)" stroke-width="2" x1="250.0" x2="250.0" y1="259.0" y2="260.0" /><line stroke="rgb(1%,1%,1%)" stroke-width="2" x1="250.0" x2="250.0" y1="260.0" y2="261.0" /><line stroke="rgb(1%,1%,1%)" stroke-width="2" x1="250.0" x2="250.0" y1="261.0" y2="262.0" /><line stroke="rgb(1%,1%,1%)" stroke-width="2" x1="250.0" x2="250.0" y1="262.0" y2="263.0" /><line stroke="rgb(1%,1%,1%)" stroke-width="2" x1="250.0" x2="250.0" y1="263.0" y2="264.0" /><line stroke="rgb(1%,1%,1%)" stroke-width="2" x1="250.0" x2="250.0" y1="264.0" y2="265.0" /><line stroke="rgb(1%,1%,1%)" stroke-width="2" x1="250.0" x2="250.0" y1="265.0" y2="266.0" /><line stroke="rgb(1%,1%,1%)" stroke-width="2" x1="250.0" x2="250.0" y1="266.0" y2="267.0" /><line stroke="rgb(1%,1%,1%)" stroke-width="2" x1="250.0" x2="250.0" y1="267.0" y2="268.0" /><line stroke="rgb(1%,1%,1%)" stroke-width="2" x1="250.0" x2="250.0" y1="268.0" y2="269.0" /><line stroke="rgb(1%,1%,1%)" stroke-width="2" x1="250.0" x2="250.0" y1="269.0" y2="270.0" /><line stroke="rgb(1%,1%,1%)" stroke-width="2" x1="250.0" x2="250.0" y1="270.0" y2="271.0" /><line stroke="rgb(1%,1%,1%)" stroke-width="2" x1="250.0" x2="250.0" y1="271.0" y2="272.0" /><line stroke="rgb(1%,1%,1%)" stroke-width="2" x1="250.0" x2="250.0" y1="272.0" y2="273.0" /><line stroke="rgb(1%,1%,1%)" stroke-width="2" x1="250.0" x2="250.0" y1="273.0" y2="274.0" /><line stroke="rgb(1%,1%,1%)" stroke-width="2" x1="250.0" x2="250.0" y1="274.0" y2="275.0" /><line stroke="rgb(1%,1%,1%)" stroke-width="2" x1="250.0" x2="250.0" y1="275.0" y2="276.0" /><line stroke="rgb(1%,1%,1%)" stroke-width="2" x1="250.0" x2="250.0" y1="276.0" y2="277.0" /><line stroke="rgb(1%,1%,1%)" stroke-width="2" x1="250.0" x2="250.0" y1="277.0" y2="278.0" /><line stroke="rgb(1%,1%,1%)" stroke-width="2" x1="250.0" x2="250.0" y1="278.0" y2="279.0" /><line stroke="rgb(1%,1%,1%)" stroke-width="2" x1="250.0" x2="250.0" y1="279.0" y2="280.0" /><line stroke="rgb(1%,1%,1%)" stroke-width="2" x1="250.0" x2="250.0" y1="280.0" y2="281.0" /><line stroke="rgb(1%,1%,1%)" stroke-width="2" x1="250.0" x2="250.0" y1="281.0" y2="282.0" /><line stroke="rgb(1%,1%,1%)" stroke-width="2" x1="250.0" x2="250.0" y1="282.0" y2="283.0" /><line stroke="rgb(1%,1%,1%)" stroke-width="2" x1="250.0" x2="250.0" y1="283.0" y2="284.0" /><line stroke="rgb(1%,1%,1%)" stroke-width="2" x1="250.0" x2="250.0" y1="284.0" y2="285.0" /><line stroke="rgb(1%,1%,1%)" stroke-width="2" x1="250.0" x2="250.0" y1="285.0" y2="286.0" /><line stroke="rgb(1%,1%,1%)" stroke-width="2" x1="250.0" x2="250.0" y1="286.0" y2="287.0" /><line stroke="rgb(1%,1%,1%)" stroke-width="2" x1="250.0" x2="250.0" y1="287.0" y2="288.0" /><line stroke="rgb(1%,1%,1%)" stroke-width="2" x1="250.0" x2="250.0" y1="288.0" y2="289.0" /><line stroke="rgb(1%,1%,1%)" stroke-width="2" x1="250.0" x2="250.0" y1="289.0" y2="290.0" /><line stroke="rgb(1%,1%,1%)" stroke-width="2" x1="250.0" x2="250.0" y1="290.0" y2="291.0" /><line stroke="rgb(1%,1%,1%)" stroke-width="2" x1="250.0" x2="250.0" y1="291.0" y2="292.0" /><line stroke="rgb(1%,1%,1%)" stroke-width="2" x1="250.0" x2="250.0" y1="292.0" y2="293.0" /><line stroke="rgb(1%,1%,1%)" stroke-width="2" x1="250.0" x2="250.0" y1="293.0" y2="294.0" /><line stroke="rgb(1%,1%,1%)" stroke-width="2" x1="250.0" x2="250.0" y1="294.0" y2="295.0" /><line stroke="rgb(1%,1%,1%)" stroke-width="2" x1="250.0" x2="250.0" y1="295.0" y2="296.0" /><line stroke="rgb(1%,1%,1%)" stroke-width="2" x1="250.0" x2="250.0" y1="296.0" y2="297.0" /><line stroke="rgb(1%,1%,1%)" stroke-width="2" x1="250.0" x2="250.0" y1="297.0" y2="298.0" /><line stroke="rgb(1%,1%,1%)" stroke-width="2" x1="250.0" x2="250.0" y1="298.0" y2="299.0" /><line stroke="rgb(1%,1%,1%)" stroke-width="2" x1="250.0" x2="250.0" y1="299.0" y2="300.0" /><line stroke="rgb(1%,1%,1%)" stroke-width="2" x1="250.0" x2="250.0" y1="300.0" y2="301.0" /><line stroke="rgb(1%,1%,1%)" stroke-width="2" x1="250.0" x2="250.0" y1="301.0" y2="302.0" /><line stroke="rgb(1%,1%,1%)" stroke-width="2" x1="250.0" x2="250.0" y1="302.0" y2="303.0" /><line stroke="rgb(1%,1%,1%)" stroke-width="2" x1="250.0" x2="250.0" y1="303.0" y2="304.0" /><line stroke="rgb(1%,1%,1%)" stroke-width="2" x1="250.0" x2="250.0" y1="304.0" y2="305.0" /><line stroke="rgb(1%,1%,1%)" stroke-width="2" x1="250.0" x2="250.0" y1="305.0" y2="306.0" /><line stroke="rgb(1%,1%,1%)" stroke-width="2" x1="250.0" x2="250.0" y1="306.0" y2="307.0" /><line stroke="rgb(1%,1%,1%)" stroke-width="2" x1="250.0" x2="250.0" y1="307.0" y2="308.0" /><line stroke="rgb(1%,1%,1%)" stroke-width="2" x1="250.0" x2="250.0" y1="308.0" y2="309.0" /><line stroke="rgb(1%,1%,1%)" stroke-width="2" x1="250.0" x2="250.0" y1="309.0" y2="310.0" /><line stroke="rgb(1%,1%,1%)" stroke-width="2" x1="250.0" x2="250.0" y1="310.0" y2="311.0" /><line stroke="rgb(1%,1%,1%)" stroke-width="2" x1="250.0" x2="250.0" y1="311.0" y2="312.0" /><line stroke="rgb(1%,1%,1%)" stroke-width="2" x1="250.0" x2="250.0" y1="312.0" y2="313.0" /><line stroke="rgb(1%,1%,1%)" stroke-width="2" x1="250.0" x2="250.0" y1="313.0" y2="314.0" /><line stroke="rgb(1%,1%,1%)" stroke-width="2" x1="250.0" x2="250.0" y1="314.0" y2="315.0" /><line stroke="rgb(1%,1%,1%)" stroke-width="2" x1="250.0" x2="250.0" y1="315.0" y2="316.0" /><line stroke="rgb(1%,1%,1%)" stroke-width="2" x1="250.0" x2="250.0" y1="316.0" y2="317.0" /><line stroke="rgb(1%,1%,1%)" stroke-width="2" x1="250.0" x2="250.0" y1="317.0" y2="318.0" /><line stroke="rgb(1%,1%,1%)" stroke-width="2" x1="250.0" x2="250.0" y1="318.0" y2="319.0" /><line stroke="rgb(1%,1%,1%)" stroke-width="2" x1="250.0" x2="250.0" y1="319.0" y2="320.0" /><line stroke="rgb(1%,1%,1%)" stroke-width="2" x1="250.0" x2="250.0" y1="320.0" y2="321.0" /><line stroke="rgb(1%,1%,1%)" stroke-width="2" x1="250.0" x2="250.0" y1="321.0" y2="322.0" /><line stroke="rgb(1%,1%,1%)" stroke-width="2" x1="250.0" x2="250.0" y1="322.0" y2="323.0" /><line stroke="rgb(1%,1%,1%)" stroke-width="2" x1="250.0" x2="250.0" y1="323.0" y2="324.0" /><line stroke="rgb(1%,1%,1%)" stroke-width="2" x1="250.0" x2="250.0" y1="324.0" y2="325.0" /><line stroke="rgb(1%,1%,1%)" stroke-width="2" x1="250.0" x2="250.0" y1="325.0" y2="326.0" /><line stroke="rgb(1%,1%,1%)" stroke-width="2" x1="250.0" x2="250.0" y1="326.0" y2="327.0" /><line stroke="rgb(1%,1%,1%)" stroke-width="2" x1="250.0" x2="250.0" y1="327.0" y2="328.0" /><line stroke="rgb(1%,1%,1%)" stroke-width="2" x1="250.0" x2="250.0" y1="328.0" y2="329.0" /><line stroke="rgb(1%,1%,1%)" stroke-width="2" x1="250.0" x2="250.0" y1="329.0" y2="330.0" /><line stroke="rgb(1%,1%,1%)" stroke-width="2" x1="250.0" x2="250.0" y1="330.0" y2="331.0" /><line stroke="rgb(1%,1%,1%)" stroke-width="2" x1="250.0" x2="250.0" y1="331.0" y2="332.0" /><line stroke="rgb(1%,1%,1%)" stroke-width="2" x1="250.0" x2="250.0" y1="332.0" y2="333.0" /><line stroke="rgb(1%,1%,1%)" stroke-width="2" x1="250.0" x2="250.0" y1="333.0" y2="334.0" /><line stroke="rgb(1%,1%,1%)" stroke-width="2" x1="250.0" x2="250.0" y1="334.0" y2="335.0" /><line stroke="rgb(1%,1%,1%)" stroke-width="2" x1="250.0" x2="250.0" y1="335.0" y2="336.0" /><line stroke="rgb(1%,1%,1%)" stroke-width="2" x1="250.0" x2="250.0" y1="336.0" y2="337.0" /><line stroke="rgb(1%,1%,1%)" stroke-width="2" x1="250.0" x2="250.0" y1="337.0" y2="338.0" /><line stroke="rgb(1%,1%,1%)" stroke-width="2" x1="250.0" x2="250.0" y1="338.0" y2="339.0" /><line stroke="rgb(1%,1%,1%)" stroke-width="2" x1="250.0" x2="250.0" y1="339.0" y2="340.0" /><line stroke="rgb(1%,1%,1%)" stroke-width="2" x1="250.0" x2="250.0" y1="340.0" y2="341.0" /><line stroke="rgb(1%,1%,1%)" stroke-width="2" x1="250.0" x2="250.0" y1="341.0" y2="342.0" /><line stroke="rgb(1%,1%,1%)" stroke-width="2" x1="250.0" x2="250.0" y1="342.0" y2="343.0" /><line stroke="rgb(1%,1%,1%)" stroke-width="2" x1="250.0" x2="250.0" y1="343.0" y2="344.0" /><line stroke="rgb(1%,1%,1%)" stroke-width="2" x1="250.0" x2="250.0" y1="344.0" y2="345.0" /><line stroke="rgb(1%,1%,1%)" stroke-width="2" x1="250.0" x2="250.0" y1="345.0" y2="346.0" /><line stroke="rgb(1%,1%,1%)" stroke-width="2" x1="250.0" x2="220.0" y1="346.0" y2="346.0" /><line stroke="rgb(1%,1%,1%)" stroke-width="2" x1="220.0" x2="120.0" y1="346.0" y2="346.00000000000006" /><line stroke="rgb(1%,1%,1%)" stroke-width="2" x1="120.0" x2="120.00000000000023" y1="346.00000000000006" y2="146.00000000000006" /><line stroke="rgb(1%,1%,1%)" stroke-width="2" x1="120.00000000000023" x2="320.0000000000002" y1="146.00000000000006" y2="145.99999999999994" /><line stroke="rgb(1%,1%,1%)" stroke-width="2" x1="320.0000000000002" x2="319.0000000000002" y1="145.99999999999994" y2="145.99999999999994" /><line stroke="rgb(1%,1%,1%)" stroke-width="2" x1="319.0000000000002" x2="219.00000000000023" y1="145.99999999999994" y2="146.0" /><line stroke="rgb(1%,1%,1%)" stroke-width="2" x1="219.00000000000023" x2="219.00000000000034" y1="146.0" y2="46.0" /><line stroke="rgb(1%,1%,1%)" stroke-width="2" x1="219.00000000000034" x2="319.00000000000034" y1="46.0" y2="45.99999999999993" /><line stroke="rgb(1%,1%,1%)" stroke-width="2" x1="319.00000000000034" x2="319.0000000000002" y1="45.99999999999993" y2="145.99999999999994" /><line stroke="rgb(0%,0%,0%)" stroke-width="2" x1="250" x2="250.0" y1="250" y2="252.0" /><line stroke="rgb(0%,0%,0%)" stroke-width="2" x1="250.0" x2="246.5" y1="252.0" y2="252.0" /><line stroke="rgb(0%,0%,0%)" stroke-width="2" x1="246.5" x2="246.5" y1="252.0" y2="245.875" /><line stroke="rgb(0%,0%,0%)" stroke-width="2" x1="246.5" x2="257.21875" y1="245.875" y2="245.875" /><line stroke="rgb(0%,0%,0%)" stroke-width="2" x1="257.21875" x2="257.21875" y1="245.875" y2="264.6328125" /><line stroke="rgb(0%,0%,0%)" stroke-width="2" x1="257.21875" x2="224.392578125" y1="264.6328125" y2="264.6328125" /><line stroke="rgb(0%,0%,0%)" stroke-width="2" x1="224.392578125" x2="224.39257812499997" y1="264.6328125" y2="207.18701171875" /><line stroke="rgb(0%,0%,0%)" stroke-width="2" x1="224.39257812499997" x2="324.9227294921875" y1="207.18701171875" y2="207.18701171874994" /><line stroke="rgb(0%,0%,0%)" stroke-width="2" x1="324.9227294921875" x2="324.9227294921876" y1="207.18701171874994" y2="383.11477661132807" /><line stroke="rgb(0%,0%,0%)" stroke-width="2" x1="324.9227294921876" x2="17.049140930175895" y1="383.11477661132807" y2="383.11477661132824" /><line stroke="rgb(0%,0%,0%)" stroke-width="2" x1="250" x2="250.0" y1="250" y2="350.0" /><line stroke="rgb(0%,0%,0%)" stroke-width="2" x1="250.0" x2="191.22147477075268" y1="350.0" y2="269.0983005625053" /><line stroke="rgb(0%,0%,0%)" stroke-width="2" x1="191.22147477075268" x2="286.32712640026807" y1="269.0983005625053" y2="300.0" /><line stroke="rgb(0%,0%,0%)" stroke-width="2" x1="286.32712640026807" x2="191.22147477075274" y1="300.0" y2="330.90169943749476" /><line stroke="rgb(0%,0%,0%)" stroke-width="2" x1="191.22147477075274" x2="250.0" y1="330.90169943749476" y2="250.0" /></svg>